%TF.GenerationSoftware,KiCad,Pcbnew,10.0.6*%
%TF.CreationDate,2026-09-27T02:50:26-07:00*%
%TF.ProjectId,vive-pogo,76697665-2d70-46f6-976f-2e6b69636164,2.0*%
%TF.SameCoordinates,Original*%
%TF.FileFunction,Legend,Bot*%
%TF.FilePolarity,Positive*%
%FSLAX46Y46*%
G04 Gerber Fmt 4.6, Leading zero omitted, Abs format (unit mm)*
G04 Created by KiCad (PCBNEW 10.0.6) date 2026-09-27 02:50:26*
%MOMM*%
%LPD*%
G01*
G04 APERTURE LIST*
%ADD10C,0.000000*%
%ADD11C,0.150000*%
G04 APERTURE END LIST*
D10*
G36*
X18310419Y7154635D02*
G01*
X18256076Y7053060D01*
X18195282Y6955211D01*
X18128223Y6861410D01*
X18055087Y6771982D01*
X17976061Y6687252D01*
X17891332Y6607542D01*
X17801087Y6533178D01*
X17705514Y6464484D01*
X17604799Y6401783D01*
X17500141Y6345912D01*
X17392863Y6297490D01*
X17283340Y6256518D01*
X17171945Y6222995D01*
X17059053Y6196922D01*
X16945038Y6178298D01*
X16830275Y6167124D01*
X16715138Y6163399D01*
X16600000Y6167123D01*
X16485237Y6178298D01*
X16371222Y6196921D01*
X16258330Y6222995D01*
X16146936Y6256517D01*
X16037412Y6297490D01*
X15930134Y6345911D01*
X15825476Y6401783D01*
X15774488Y6432364D01*
X15724761Y6464483D01*
X15676320Y6498102D01*
X15629188Y6533178D01*
X15583388Y6569672D01*
X15538943Y6607542D01*
X15495877Y6646749D01*
X15454214Y6687251D01*
X15413976Y6729009D01*
X15375188Y6771982D01*
X15337872Y6816129D01*
X15302052Y6861410D01*
X15267751Y6907784D01*
X15234993Y6955210D01*
X15203801Y7003649D01*
X15174199Y7053060D01*
X15146209Y7103402D01*
X15119856Y7154634D01*
X15095162Y7206717D01*
X15072151Y7259609D01*
X15050847Y7313271D01*
X15031273Y7367661D01*
X15013451Y7422739D01*
X14997407Y7478465D01*
X14983162Y7534798D01*
X14970741Y7591697D01*
X14960167Y7649122D01*
X14951462Y7707033D01*
X14944652Y7765389D01*
X14939758Y7824149D01*
X14936804Y7883274D01*
X14935815Y7942722D01*
X14939758Y8061294D01*
X14951462Y8178410D01*
X14970741Y8293746D01*
X14997407Y8406978D01*
X15031273Y8517782D01*
X15072151Y8625834D01*
X15119856Y8730809D01*
X15153850Y8794349D01*
X15764291Y8794349D01*
X15787442Y8744740D01*
X15817208Y8695130D01*
X15823822Y8671979D01*
X16154552Y8017136D01*
X16154552Y7984063D01*
X16144630Y7957604D01*
X16035489Y7745938D01*
X15936270Y7537578D01*
X15926349Y7527657D01*
X15840359Y7345755D01*
X15830437Y7335834D01*
X15767599Y7206849D01*
X15770906Y7160547D01*
X15784135Y7153933D01*
X16009031Y7153933D01*
X16028875Y7163854D01*
X16038796Y7173776D01*
X16101635Y7306068D01*
X16118171Y7329219D01*
X16144630Y7392058D01*
X16154552Y7401979D01*
X16286843Y7673177D01*
X16296765Y7683099D01*
X16309994Y7686406D01*
X16326531Y7673177D01*
X16515046Y7299453D01*
X16554734Y7210156D01*
X16584500Y7163854D01*
X16607651Y7153933D01*
X16829239Y7153933D01*
X16842468Y7160547D01*
X16842468Y7216771D01*
X16458822Y7984063D01*
X16458822Y8017136D01*
X16617572Y8328021D01*
X16660567Y8423932D01*
X16703562Y8506615D01*
X16710176Y8513229D01*
X16726713Y8513229D01*
X16739942Y8500000D01*
X17404708Y7167162D01*
X17431166Y7150625D01*
X17662677Y7150625D01*
X17672598Y7157240D01*
X17675906Y7200235D01*
X16852390Y8843958D01*
X16594421Y8847266D01*
X16584500Y8840651D01*
X16511739Y8688516D01*
X16346375Y8367708D01*
X16326531Y8318099D01*
X16316609Y8308177D01*
X16296765Y8308177D01*
X16290150Y8314792D01*
X16032182Y8830729D01*
X16009031Y8843958D01*
X15777520Y8843958D01*
X15767599Y8837344D01*
X15764291Y8794349D01*
X15153850Y8794349D01*
X15174199Y8832383D01*
X15234993Y8930233D01*
X15302052Y9024033D01*
X15375188Y9113461D01*
X15454214Y9198192D01*
X15538943Y9277901D01*
X15629188Y9352265D01*
X15724761Y9420960D01*
X15825476Y9483660D01*
X15930134Y9539532D01*
X16037412Y9587953D01*
X16146936Y9628926D01*
X16258330Y9662448D01*
X16371222Y9688522D01*
X16485237Y9707145D01*
X16600000Y9718320D01*
X16715138Y9722044D01*
X16830275Y9718320D01*
X16945038Y9707145D01*
X17059053Y9688522D01*
X17171945Y9662448D01*
X17283340Y9628926D01*
X17392863Y9587953D01*
X17500141Y9539532D01*
X17604799Y9483660D01*
X17655787Y9453079D01*
X17705514Y9420959D01*
X17753955Y9387341D01*
X17801087Y9352265D01*
X17846888Y9315771D01*
X17891332Y9277901D01*
X17934398Y9238694D01*
X17976061Y9198192D01*
X18016299Y9156434D01*
X18055087Y9113461D01*
X18092403Y9069314D01*
X18128223Y9024033D01*
X18162524Y8977659D01*
X18195282Y8930232D01*
X18226474Y8881794D01*
X18256076Y8832383D01*
X18284066Y8782041D01*
X18310419Y8730809D01*
X18335113Y8678726D01*
X18358124Y8625834D01*
X18379428Y8572172D01*
X18399002Y8517782D01*
X18416824Y8462704D01*
X18432868Y8406978D01*
X18447113Y8350645D01*
X18459534Y8293746D01*
X18470109Y8236321D01*
X18478813Y8178410D01*
X18485624Y8120054D01*
X18490517Y8061293D01*
X18493471Y8002169D01*
X18494460Y7942721D01*
X18490517Y7824149D01*
X18478813Y7707033D01*
X18459534Y7591697D01*
X18432868Y7478465D01*
X18399002Y7367661D01*
X18358124Y7259610D01*
X18331142Y7200235D01*
X18310419Y7154635D01*
G37*
D11*
X9009523Y8599610D02*
X9085713Y8637705D01*
X9085713Y8637705D02*
X9199999Y8637705D01*
X9199999Y8637705D02*
X9314285Y8599610D01*
X9314285Y8599610D02*
X9390475Y8523420D01*
X9390475Y8523420D02*
X9428570Y8447229D01*
X9428570Y8447229D02*
X9466666Y8294848D01*
X9466666Y8294848D02*
X9466666Y8180562D01*
X9466666Y8180562D02*
X9428570Y8028181D01*
X9428570Y8028181D02*
X9390475Y7951991D01*
X9390475Y7951991D02*
X9314285Y7875800D01*
X9314285Y7875800D02*
X9199999Y7837705D01*
X9199999Y7837705D02*
X9123808Y7837705D01*
X9123808Y7837705D02*
X9009523Y7875800D01*
X9009523Y7875800D02*
X8971427Y7913896D01*
X8971427Y7913896D02*
X8971427Y8180562D01*
X8971427Y8180562D02*
X9123808Y8180562D01*
X8628570Y7837705D02*
X8628570Y8637705D01*
X8628570Y8637705D02*
X8171427Y7837705D01*
X8171427Y7837705D02*
X8171427Y8637705D01*
X7790475Y7837705D02*
X7790475Y8637705D01*
X7790475Y8637705D02*
X7599999Y8637705D01*
X7599999Y8637705D02*
X7485713Y8599610D01*
X7485713Y8599610D02*
X7409523Y8523420D01*
X7409523Y8523420D02*
X7371428Y8447229D01*
X7371428Y8447229D02*
X7333332Y8294848D01*
X7333332Y8294848D02*
X7333332Y8180562D01*
X7333332Y8180562D02*
X7371428Y8028181D01*
X7371428Y8028181D02*
X7409523Y7951991D01*
X7409523Y7951991D02*
X7485713Y7875800D01*
X7485713Y7875800D02*
X7599999Y7837705D01*
X7599999Y7837705D02*
X7790475Y7837705D01*
X9466666Y5637705D02*
X9199999Y4837705D01*
X9199999Y4837705D02*
X8933333Y5637705D01*
X8209523Y4913896D02*
X8247619Y4875800D01*
X8247619Y4875800D02*
X8361904Y4837705D01*
X8361904Y4837705D02*
X8438095Y4837705D01*
X8438095Y4837705D02*
X8552381Y4875800D01*
X8552381Y4875800D02*
X8628571Y4951991D01*
X8628571Y4951991D02*
X8666666Y5028181D01*
X8666666Y5028181D02*
X8704762Y5180562D01*
X8704762Y5180562D02*
X8704762Y5294848D01*
X8704762Y5294848D02*
X8666666Y5447229D01*
X8666666Y5447229D02*
X8628571Y5523420D01*
X8628571Y5523420D02*
X8552381Y5599610D01*
X8552381Y5599610D02*
X8438095Y5637705D01*
X8438095Y5637705D02*
X8361904Y5637705D01*
X8361904Y5637705D02*
X8247619Y5599610D01*
X8247619Y5599610D02*
X8209523Y5561515D01*
X7409523Y4913896D02*
X7447619Y4875800D01*
X7447619Y4875800D02*
X7561904Y4837705D01*
X7561904Y4837705D02*
X7638095Y4837705D01*
X7638095Y4837705D02*
X7752381Y4875800D01*
X7752381Y4875800D02*
X7828571Y4951991D01*
X7828571Y4951991D02*
X7866666Y5028181D01*
X7866666Y5028181D02*
X7904762Y5180562D01*
X7904762Y5180562D02*
X7904762Y5294848D01*
X7904762Y5294848D02*
X7866666Y5447229D01*
X7866666Y5447229D02*
X7828571Y5523420D01*
X7828571Y5523420D02*
X7752381Y5599610D01*
X7752381Y5599610D02*
X7638095Y5637705D01*
X7638095Y5637705D02*
X7561904Y5637705D01*
X7561904Y5637705D02*
X7447619Y5599610D01*
X7447619Y5599610D02*
X7409523Y5561515D01*
X9276190Y1437705D02*
X9276190Y2237705D01*
X9276190Y2237705D02*
X9085714Y2237705D01*
X9085714Y2237705D02*
X8971428Y2199610D01*
X8971428Y2199610D02*
X8895238Y2123420D01*
X8895238Y2123420D02*
X8857143Y2047229D01*
X8857143Y2047229D02*
X8819047Y1894848D01*
X8819047Y1894848D02*
X8819047Y1780562D01*
X8819047Y1780562D02*
X8857143Y1628181D01*
X8857143Y1628181D02*
X8895238Y1551991D01*
X8895238Y1551991D02*
X8971428Y1475800D01*
X8971428Y1475800D02*
X9085714Y1437705D01*
X9085714Y1437705D02*
X9276190Y1437705D01*
X8476190Y1856753D02*
X8209524Y1856753D01*
X8095238Y1437705D02*
X8476190Y1437705D01*
X8476190Y1437705D02*
X8476190Y2237705D01*
X8476190Y2237705D02*
X8095238Y2237705D01*
X7866666Y2237705D02*
X7409523Y2237705D01*
X7638095Y1437705D02*
X7638095Y2237705D01*
X21225125Y4188910D02*
X20958458Y3388910D01*
X20958458Y3388910D02*
X20691792Y4188910D01*
X20425125Y3388910D02*
X20425125Y4188910D01*
X20158459Y4188910D02*
X19891792Y3388910D01*
X19891792Y3388910D02*
X19625126Y4188910D01*
X19358459Y3807958D02*
X19091793Y3807958D01*
X18977507Y3388910D02*
X19358459Y3388910D01*
X19358459Y3388910D02*
X19358459Y4188910D01*
X19358459Y4188910D02*
X18977507Y4188910D01*
X18025125Y3388910D02*
X18025125Y4188910D01*
X18025125Y4188910D02*
X17720363Y4188910D01*
X17720363Y4188910D02*
X17644173Y4150815D01*
X17644173Y4150815D02*
X17606078Y4112720D01*
X17606078Y4112720D02*
X17567982Y4036529D01*
X17567982Y4036529D02*
X17567982Y3922244D01*
X17567982Y3922244D02*
X17606078Y3846053D01*
X17606078Y3846053D02*
X17644173Y3807958D01*
X17644173Y3807958D02*
X17720363Y3769863D01*
X17720363Y3769863D02*
X18025125Y3769863D01*
X17110840Y3388910D02*
X17187030Y3427005D01*
X17187030Y3427005D02*
X17225125Y3465101D01*
X17225125Y3465101D02*
X17263221Y3541291D01*
X17263221Y3541291D02*
X17263221Y3769863D01*
X17263221Y3769863D02*
X17225125Y3846053D01*
X17225125Y3846053D02*
X17187030Y3884148D01*
X17187030Y3884148D02*
X17110840Y3922244D01*
X17110840Y3922244D02*
X16996554Y3922244D01*
X16996554Y3922244D02*
X16920363Y3884148D01*
X16920363Y3884148D02*
X16882268Y3846053D01*
X16882268Y3846053D02*
X16844173Y3769863D01*
X16844173Y3769863D02*
X16844173Y3541291D01*
X16844173Y3541291D02*
X16882268Y3465101D01*
X16882268Y3465101D02*
X16920363Y3427005D01*
X16920363Y3427005D02*
X16996554Y3388910D01*
X16996554Y3388910D02*
X17110840Y3388910D01*
X16158458Y3922244D02*
X16158458Y3274625D01*
X16158458Y3274625D02*
X16196553Y3198434D01*
X16196553Y3198434D02*
X16234649Y3160339D01*
X16234649Y3160339D02*
X16310839Y3122244D01*
X16310839Y3122244D02*
X16425125Y3122244D01*
X16425125Y3122244D02*
X16501315Y3160339D01*
X16158458Y3427005D02*
X16234649Y3388910D01*
X16234649Y3388910D02*
X16387030Y3388910D01*
X16387030Y3388910D02*
X16463220Y3427005D01*
X16463220Y3427005D02*
X16501315Y3465101D01*
X16501315Y3465101D02*
X16539411Y3541291D01*
X16539411Y3541291D02*
X16539411Y3769863D01*
X16539411Y3769863D02*
X16501315Y3846053D01*
X16501315Y3846053D02*
X16463220Y3884148D01*
X16463220Y3884148D02*
X16387030Y3922244D01*
X16387030Y3922244D02*
X16234649Y3922244D01*
X16234649Y3922244D02*
X16158458Y3884148D01*
X15663220Y3388910D02*
X15739410Y3427005D01*
X15739410Y3427005D02*
X15777505Y3465101D01*
X15777505Y3465101D02*
X15815601Y3541291D01*
X15815601Y3541291D02*
X15815601Y3769863D01*
X15815601Y3769863D02*
X15777505Y3846053D01*
X15777505Y3846053D02*
X15739410Y3884148D01*
X15739410Y3884148D02*
X15663220Y3922244D01*
X15663220Y3922244D02*
X15548934Y3922244D01*
X15548934Y3922244D02*
X15472743Y3884148D01*
X15472743Y3884148D02*
X15434648Y3846053D01*
X15434648Y3846053D02*
X15396553Y3769863D01*
X15396553Y3769863D02*
X15396553Y3541291D01*
X15396553Y3541291D02*
X15434648Y3465101D01*
X15434648Y3465101D02*
X15472743Y3427005D01*
X15472743Y3427005D02*
X15548934Y3388910D01*
X15548934Y3388910D02*
X15663220Y3388910D01*
X20844173Y2520003D02*
X20729887Y2481908D01*
X20729887Y2481908D02*
X20691792Y2443812D01*
X20691792Y2443812D02*
X20653696Y2367622D01*
X20653696Y2367622D02*
X20653696Y2253336D01*
X20653696Y2253336D02*
X20691792Y2177146D01*
X20691792Y2177146D02*
X20729887Y2139050D01*
X20729887Y2139050D02*
X20806077Y2100955D01*
X20806077Y2100955D02*
X21110839Y2100955D01*
X21110839Y2100955D02*
X21110839Y2900955D01*
X21110839Y2900955D02*
X20844173Y2900955D01*
X20844173Y2900955D02*
X20767982Y2862860D01*
X20767982Y2862860D02*
X20729887Y2824765D01*
X20729887Y2824765D02*
X20691792Y2748574D01*
X20691792Y2748574D02*
X20691792Y2672384D01*
X20691792Y2672384D02*
X20729887Y2596193D01*
X20729887Y2596193D02*
X20767982Y2558098D01*
X20767982Y2558098D02*
X20844173Y2520003D01*
X20844173Y2520003D02*
X21110839Y2520003D01*
X20196554Y2100955D02*
X20272744Y2139050D01*
X20272744Y2139050D02*
X20310839Y2177146D01*
X20310839Y2177146D02*
X20348935Y2253336D01*
X20348935Y2253336D02*
X20348935Y2481908D01*
X20348935Y2481908D02*
X20310839Y2558098D01*
X20310839Y2558098D02*
X20272744Y2596193D01*
X20272744Y2596193D02*
X20196554Y2634289D01*
X20196554Y2634289D02*
X20082268Y2634289D01*
X20082268Y2634289D02*
X20006077Y2596193D01*
X20006077Y2596193D02*
X19967982Y2558098D01*
X19967982Y2558098D02*
X19929887Y2481908D01*
X19929887Y2481908D02*
X19929887Y2253336D01*
X19929887Y2253336D02*
X19967982Y2177146D01*
X19967982Y2177146D02*
X20006077Y2139050D01*
X20006077Y2139050D02*
X20082268Y2100955D01*
X20082268Y2100955D02*
X20196554Y2100955D01*
X19244172Y2100955D02*
X19244172Y2520003D01*
X19244172Y2520003D02*
X19282267Y2596193D01*
X19282267Y2596193D02*
X19358458Y2634289D01*
X19358458Y2634289D02*
X19510839Y2634289D01*
X19510839Y2634289D02*
X19587029Y2596193D01*
X19244172Y2139050D02*
X19320363Y2100955D01*
X19320363Y2100955D02*
X19510839Y2100955D01*
X19510839Y2100955D02*
X19587029Y2139050D01*
X19587029Y2139050D02*
X19625125Y2215241D01*
X19625125Y2215241D02*
X19625125Y2291431D01*
X19625125Y2291431D02*
X19587029Y2367622D01*
X19587029Y2367622D02*
X19510839Y2405717D01*
X19510839Y2405717D02*
X19320363Y2405717D01*
X19320363Y2405717D02*
X19244172Y2443812D01*
X18863219Y2100955D02*
X18863219Y2634289D01*
X18863219Y2481908D02*
X18825124Y2558098D01*
X18825124Y2558098D02*
X18787029Y2596193D01*
X18787029Y2596193D02*
X18710838Y2634289D01*
X18710838Y2634289D02*
X18634648Y2634289D01*
X18025124Y2100955D02*
X18025124Y2900955D01*
X18025124Y2139050D02*
X18101315Y2100955D01*
X18101315Y2100955D02*
X18253696Y2100955D01*
X18253696Y2100955D02*
X18329886Y2139050D01*
X18329886Y2139050D02*
X18367981Y2177146D01*
X18367981Y2177146D02*
X18406077Y2253336D01*
X18406077Y2253336D02*
X18406077Y2481908D01*
X18406077Y2481908D02*
X18367981Y2558098D01*
X18367981Y2558098D02*
X18329886Y2596193D01*
X18329886Y2596193D02*
X18253696Y2634289D01*
X18253696Y2634289D02*
X18101315Y2634289D01*
X18101315Y2634289D02*
X18025124Y2596193D01*
X16577504Y2100955D02*
X16844171Y2481908D01*
X17034647Y2100955D02*
X17034647Y2900955D01*
X17034647Y2900955D02*
X16729885Y2900955D01*
X16729885Y2900955D02*
X16653695Y2862860D01*
X16653695Y2862860D02*
X16615600Y2824765D01*
X16615600Y2824765D02*
X16577504Y2748574D01*
X16577504Y2748574D02*
X16577504Y2634289D01*
X16577504Y2634289D02*
X16615600Y2558098D01*
X16615600Y2558098D02*
X16653695Y2520003D01*
X16653695Y2520003D02*
X16729885Y2481908D01*
X16729885Y2481908D02*
X17034647Y2481908D01*
X16272743Y2824765D02*
X16234647Y2862860D01*
X16234647Y2862860D02*
X16158457Y2900955D01*
X16158457Y2900955D02*
X15967981Y2900955D01*
X15967981Y2900955D02*
X15891790Y2862860D01*
X15891790Y2862860D02*
X15853695Y2824765D01*
X15853695Y2824765D02*
X15815600Y2748574D01*
X15815600Y2748574D02*
X15815600Y2672384D01*
X15815600Y2672384D02*
X15853695Y2558098D01*
X15853695Y2558098D02*
X16310838Y2100955D01*
X16310838Y2100955D02*
X15815600Y2100955D01*
X15472742Y2177146D02*
X15434647Y2139050D01*
X15434647Y2139050D02*
X15472742Y2100955D01*
X15472742Y2100955D02*
X15510838Y2139050D01*
X15510838Y2139050D02*
X15472742Y2177146D01*
X15472742Y2177146D02*
X15472742Y2100955D01*
X14939409Y2900955D02*
X14863219Y2900955D01*
X14863219Y2900955D02*
X14787028Y2862860D01*
X14787028Y2862860D02*
X14748933Y2824765D01*
X14748933Y2824765D02*
X14710838Y2748574D01*
X14710838Y2748574D02*
X14672743Y2596193D01*
X14672743Y2596193D02*
X14672743Y2405717D01*
X14672743Y2405717D02*
X14710838Y2253336D01*
X14710838Y2253336D02*
X14748933Y2177146D01*
X14748933Y2177146D02*
X14787028Y2139050D01*
X14787028Y2139050D02*
X14863219Y2100955D01*
X14863219Y2100955D02*
X14939409Y2100955D01*
X14939409Y2100955D02*
X15015600Y2139050D01*
X15015600Y2139050D02*
X15053695Y2177146D01*
X15053695Y2177146D02*
X15091790Y2253336D01*
X15091790Y2253336D02*
X15129886Y2405717D01*
X15129886Y2405717D02*
X15129886Y2596193D01*
X15129886Y2596193D02*
X15091790Y2748574D01*
X15091790Y2748574D02*
X15053695Y2824765D01*
X15053695Y2824765D02*
X15015600Y2862860D01*
X15015600Y2862860D02*
X14939409Y2900955D01*
X21148935Y1536810D02*
X21110839Y1574905D01*
X21110839Y1574905D02*
X21034649Y1613000D01*
X21034649Y1613000D02*
X20844173Y1613000D01*
X20844173Y1613000D02*
X20767982Y1574905D01*
X20767982Y1574905D02*
X20729887Y1536810D01*
X20729887Y1536810D02*
X20691792Y1460619D01*
X20691792Y1460619D02*
X20691792Y1384429D01*
X20691792Y1384429D02*
X20729887Y1270143D01*
X20729887Y1270143D02*
X21187030Y813000D01*
X21187030Y813000D02*
X20691792Y813000D01*
X20196553Y1613000D02*
X20120363Y1613000D01*
X20120363Y1613000D02*
X20044172Y1574905D01*
X20044172Y1574905D02*
X20006077Y1536810D01*
X20006077Y1536810D02*
X19967982Y1460619D01*
X19967982Y1460619D02*
X19929887Y1308238D01*
X19929887Y1308238D02*
X19929887Y1117762D01*
X19929887Y1117762D02*
X19967982Y965381D01*
X19967982Y965381D02*
X20006077Y889191D01*
X20006077Y889191D02*
X20044172Y851095D01*
X20044172Y851095D02*
X20120363Y813000D01*
X20120363Y813000D02*
X20196553Y813000D01*
X20196553Y813000D02*
X20272744Y851095D01*
X20272744Y851095D02*
X20310839Y889191D01*
X20310839Y889191D02*
X20348934Y965381D01*
X20348934Y965381D02*
X20387030Y1117762D01*
X20387030Y1117762D02*
X20387030Y1308238D01*
X20387030Y1308238D02*
X20348934Y1460619D01*
X20348934Y1460619D02*
X20310839Y1536810D01*
X20310839Y1536810D02*
X20272744Y1574905D01*
X20272744Y1574905D02*
X20196553Y1613000D01*
X19625125Y1536810D02*
X19587029Y1574905D01*
X19587029Y1574905D02*
X19510839Y1613000D01*
X19510839Y1613000D02*
X19320363Y1613000D01*
X19320363Y1613000D02*
X19244172Y1574905D01*
X19244172Y1574905D02*
X19206077Y1536810D01*
X19206077Y1536810D02*
X19167982Y1460619D01*
X19167982Y1460619D02*
X19167982Y1384429D01*
X19167982Y1384429D02*
X19206077Y1270143D01*
X19206077Y1270143D02*
X19663220Y813000D01*
X19663220Y813000D02*
X19167982Y813000D01*
X18482267Y1613000D02*
X18634648Y1613000D01*
X18634648Y1613000D02*
X18710839Y1574905D01*
X18710839Y1574905D02*
X18748934Y1536810D01*
X18748934Y1536810D02*
X18825124Y1422524D01*
X18825124Y1422524D02*
X18863220Y1270143D01*
X18863220Y1270143D02*
X18863220Y965381D01*
X18863220Y965381D02*
X18825124Y889191D01*
X18825124Y889191D02*
X18787029Y851095D01*
X18787029Y851095D02*
X18710839Y813000D01*
X18710839Y813000D02*
X18558458Y813000D01*
X18558458Y813000D02*
X18482267Y851095D01*
X18482267Y851095D02*
X18444172Y889191D01*
X18444172Y889191D02*
X18406077Y965381D01*
X18406077Y965381D02*
X18406077Y1155857D01*
X18406077Y1155857D02*
X18444172Y1232048D01*
X18444172Y1232048D02*
X18482267Y1270143D01*
X18482267Y1270143D02*
X18558458Y1308238D01*
X18558458Y1308238D02*
X18710839Y1308238D01*
X18710839Y1308238D02*
X18787029Y1270143D01*
X18787029Y1270143D02*
X18825124Y1232048D01*
X18825124Y1232048D02*
X18863220Y1155857D01*
X18063219Y1117762D02*
X17453696Y1117762D01*
X16920362Y1613000D02*
X16844172Y1613000D01*
X16844172Y1613000D02*
X16767981Y1574905D01*
X16767981Y1574905D02*
X16729886Y1536810D01*
X16729886Y1536810D02*
X16691791Y1460619D01*
X16691791Y1460619D02*
X16653696Y1308238D01*
X16653696Y1308238D02*
X16653696Y1117762D01*
X16653696Y1117762D02*
X16691791Y965381D01*
X16691791Y965381D02*
X16729886Y889191D01*
X16729886Y889191D02*
X16767981Y851095D01*
X16767981Y851095D02*
X16844172Y813000D01*
X16844172Y813000D02*
X16920362Y813000D01*
X16920362Y813000D02*
X16996553Y851095D01*
X16996553Y851095D02*
X17034648Y889191D01*
X17034648Y889191D02*
X17072743Y965381D01*
X17072743Y965381D02*
X17110839Y1117762D01*
X17110839Y1117762D02*
X17110839Y1308238D01*
X17110839Y1308238D02*
X17072743Y1460619D01*
X17072743Y1460619D02*
X17034648Y1536810D01*
X17034648Y1536810D02*
X16996553Y1574905D01*
X16996553Y1574905D02*
X16920362Y1613000D01*
X16272743Y813000D02*
X16120362Y813000D01*
X16120362Y813000D02*
X16044172Y851095D01*
X16044172Y851095D02*
X16006076Y889191D01*
X16006076Y889191D02*
X15929886Y1003476D01*
X15929886Y1003476D02*
X15891791Y1155857D01*
X15891791Y1155857D02*
X15891791Y1460619D01*
X15891791Y1460619D02*
X15929886Y1536810D01*
X15929886Y1536810D02*
X15967981Y1574905D01*
X15967981Y1574905D02*
X16044172Y1613000D01*
X16044172Y1613000D02*
X16196553Y1613000D01*
X16196553Y1613000D02*
X16272743Y1574905D01*
X16272743Y1574905D02*
X16310838Y1536810D01*
X16310838Y1536810D02*
X16348934Y1460619D01*
X16348934Y1460619D02*
X16348934Y1270143D01*
X16348934Y1270143D02*
X16310838Y1193953D01*
X16310838Y1193953D02*
X16272743Y1155857D01*
X16272743Y1155857D02*
X16196553Y1117762D01*
X16196553Y1117762D02*
X16044172Y1117762D01*
X16044172Y1117762D02*
X15967981Y1155857D01*
X15967981Y1155857D02*
X15929886Y1193953D01*
X15929886Y1193953D02*
X15891791Y1270143D01*
X15548933Y1117762D02*
X14939410Y1117762D01*
X14596553Y1536810D02*
X14558457Y1574905D01*
X14558457Y1574905D02*
X14482267Y1613000D01*
X14482267Y1613000D02*
X14291791Y1613000D01*
X14291791Y1613000D02*
X14215600Y1574905D01*
X14215600Y1574905D02*
X14177505Y1536810D01*
X14177505Y1536810D02*
X14139410Y1460619D01*
X14139410Y1460619D02*
X14139410Y1384429D01*
X14139410Y1384429D02*
X14177505Y1270143D01*
X14177505Y1270143D02*
X14634648Y813000D01*
X14634648Y813000D02*
X14139410Y813000D01*
X13872743Y1613000D02*
X13339409Y1613000D01*
X13339409Y1613000D02*
X13682267Y813000D01*
M02*
