%TF.GenerationSoftware,KiCad,Pcbnew,10.0.6*%
%TF.CreationDate,2026-09-25T16:44:55-07:00*%
%TF.ProjectId,vive-pogo,76697665-2d70-46f6-976f-2e6b69636164,1.0*%
%TF.SameCoordinates,Original*%
%TF.FileFunction,Legend,Bot*%
%TF.FilePolarity,Positive*%
%FSLAX46Y46*%
G04 Gerber Fmt 4.6, Leading zero omitted, Abs format (unit mm)*
G04 Created by KiCad (PCBNEW 10.0.6) date 2026-09-25 16:44:55*
%MOMM*%
%LPD*%
G01*
G04 APERTURE LIST*
%ADD10C,0.000000*%
%ADD11C,0.150000*%
G04 APERTURE END LIST*
D10*
G36*
X17818335Y3699052D02*
G01*
X17774861Y3617793D01*
X17726225Y3539513D01*
X17672578Y3464473D01*
X17614070Y3392930D01*
X17550849Y3325146D01*
X17483066Y3261378D01*
X17410870Y3201887D01*
X17334411Y3146932D01*
X17253839Y3096771D01*
X17170113Y3052074D01*
X17084290Y3013337D01*
X16996672Y2980559D01*
X16907556Y2953740D01*
X16817242Y2932882D01*
X16726030Y2917983D01*
X16634220Y2909043D01*
X16542110Y2906064D01*
X16450000Y2909043D01*
X16358189Y2917983D01*
X16266978Y2932882D01*
X16176664Y2953740D01*
X16087548Y2980559D01*
X15999929Y3013336D01*
X15914107Y3052074D01*
X15830381Y3096771D01*
X15789590Y3121235D01*
X15749809Y3146931D01*
X15711056Y3173826D01*
X15673350Y3201887D01*
X15636710Y3231082D01*
X15601154Y3261378D01*
X15566702Y3292744D01*
X15533371Y3325146D01*
X15501181Y3358552D01*
X15470150Y3392930D01*
X15440297Y3428248D01*
X15411641Y3464472D01*
X15384201Y3501572D01*
X15357994Y3539513D01*
X15333041Y3578264D01*
X15309359Y3617793D01*
X15286967Y3658066D01*
X15265884Y3699052D01*
X15246129Y3740718D01*
X15227721Y3783032D01*
X15210677Y3825961D01*
X15195018Y3869473D01*
X15180761Y3913536D01*
X15167925Y3958116D01*
X15156530Y4003183D01*
X15146593Y4048702D01*
X15138133Y4094642D01*
X15131170Y4140971D01*
X15125721Y4187656D01*
X15121806Y4234664D01*
X15119443Y4281964D01*
X15118652Y4329522D01*
X15121806Y4424380D01*
X15131170Y4518073D01*
X15146593Y4610342D01*
X15167925Y4700927D01*
X15195018Y4789570D01*
X15227721Y4876012D01*
X15265884Y4959992D01*
X15293080Y5010824D01*
X15781433Y5010824D01*
X15799954Y4971136D01*
X15823766Y4931449D01*
X15829058Y4912928D01*
X16093641Y4389053D01*
X16093641Y4362595D01*
X16085704Y4341428D01*
X15998391Y4172095D01*
X15919016Y4005407D01*
X15911079Y3997470D01*
X15842287Y3851949D01*
X15834349Y3844011D01*
X15784079Y3740824D01*
X15786724Y3703782D01*
X15797308Y3698491D01*
X15977224Y3698491D01*
X15993099Y3706428D01*
X16001037Y3714366D01*
X16051308Y3820199D01*
X16064537Y3838720D01*
X16085704Y3888991D01*
X16093641Y3896928D01*
X16199474Y4113886D01*
X16207412Y4121824D01*
X16217995Y4124470D01*
X16231224Y4113886D01*
X16382037Y3814907D01*
X16413787Y3743470D01*
X16437599Y3706428D01*
X16456120Y3698491D01*
X16633391Y3698491D01*
X16643974Y3703782D01*
X16643974Y3748761D01*
X16337058Y4362595D01*
X16337058Y4389053D01*
X16464058Y4637761D01*
X16498454Y4714491D01*
X16532849Y4780636D01*
X16538141Y4785928D01*
X16551370Y4785928D01*
X16561954Y4775345D01*
X17093766Y3709074D01*
X17114933Y3695845D01*
X17300141Y3695845D01*
X17308079Y3701136D01*
X17310724Y3735532D01*
X16651912Y5050511D01*
X16445537Y5053157D01*
X16437599Y5047866D01*
X16379391Y4926157D01*
X16247099Y4669511D01*
X16231224Y4629824D01*
X16223287Y4621886D01*
X16207412Y4621886D01*
X16202120Y4627178D01*
X15995745Y5039928D01*
X15977224Y5050511D01*
X15792016Y5050511D01*
X15784079Y5045220D01*
X15781433Y5010824D01*
X15293080Y5010824D01*
X15309359Y5041251D01*
X15357994Y5119531D01*
X15411641Y5194571D01*
X15470150Y5266113D01*
X15533371Y5333898D01*
X15601154Y5397665D01*
X15673350Y5457157D01*
X15749809Y5512112D01*
X15830381Y5562273D01*
X15914107Y5606970D01*
X15999929Y5645707D01*
X16087548Y5678485D01*
X16176664Y5705303D01*
X16266978Y5726162D01*
X16358189Y5741061D01*
X16450000Y5750000D01*
X16542110Y5752980D01*
X16634220Y5750000D01*
X16726030Y5741061D01*
X16817242Y5726162D01*
X16907556Y5705303D01*
X16996672Y5678485D01*
X17084290Y5645707D01*
X17170113Y5606970D01*
X17253839Y5562273D01*
X17294630Y5537808D01*
X17334411Y5512112D01*
X17373164Y5485217D01*
X17410870Y5457157D01*
X17447510Y5427962D01*
X17483066Y5397665D01*
X17517518Y5366300D01*
X17550849Y5333898D01*
X17583039Y5300492D01*
X17614070Y5266113D01*
X17643922Y5230796D01*
X17672578Y5194571D01*
X17700019Y5157472D01*
X17726225Y5119531D01*
X17751179Y5080779D01*
X17774861Y5041251D01*
X17797253Y5000977D01*
X17818335Y4959991D01*
X17838090Y4918325D01*
X17856499Y4876011D01*
X17873542Y4833082D01*
X17889202Y4789570D01*
X17903459Y4745508D01*
X17916294Y4700927D01*
X17927690Y4655861D01*
X17937627Y4610341D01*
X17946087Y4564401D01*
X17953050Y4518072D01*
X17958499Y4471388D01*
X17962414Y4424379D01*
X17964776Y4377080D01*
X17965568Y4329522D01*
X17962414Y4234664D01*
X17953050Y4140971D01*
X17937627Y4048702D01*
X17916294Y3958117D01*
X17889202Y3869473D01*
X17856499Y3783032D01*
X17834913Y3735532D01*
X17818335Y3699052D01*
G37*
D11*
X19725125Y2343660D02*
X19458458Y1543660D01*
X19458458Y1543660D02*
X19191792Y2343660D01*
X18925125Y1543660D02*
X18925125Y2343660D01*
X18658459Y2343660D02*
X18391792Y1543660D01*
X18391792Y1543660D02*
X18125126Y2343660D01*
X17858459Y1962708D02*
X17591793Y1962708D01*
X17477507Y1543660D02*
X17858459Y1543660D01*
X17858459Y1543660D02*
X17858459Y2343660D01*
X17858459Y2343660D02*
X17477507Y2343660D01*
X16525125Y1543660D02*
X16525125Y2343660D01*
X16525125Y2343660D02*
X16220363Y2343660D01*
X16220363Y2343660D02*
X16144173Y2305565D01*
X16144173Y2305565D02*
X16106078Y2267470D01*
X16106078Y2267470D02*
X16067982Y2191279D01*
X16067982Y2191279D02*
X16067982Y2076994D01*
X16067982Y2076994D02*
X16106078Y2000803D01*
X16106078Y2000803D02*
X16144173Y1962708D01*
X16144173Y1962708D02*
X16220363Y1924613D01*
X16220363Y1924613D02*
X16525125Y1924613D01*
X15610840Y1543660D02*
X15687030Y1581755D01*
X15687030Y1581755D02*
X15725125Y1619851D01*
X15725125Y1619851D02*
X15763221Y1696041D01*
X15763221Y1696041D02*
X15763221Y1924613D01*
X15763221Y1924613D02*
X15725125Y2000803D01*
X15725125Y2000803D02*
X15687030Y2038898D01*
X15687030Y2038898D02*
X15610840Y2076994D01*
X15610840Y2076994D02*
X15496554Y2076994D01*
X15496554Y2076994D02*
X15420363Y2038898D01*
X15420363Y2038898D02*
X15382268Y2000803D01*
X15382268Y2000803D02*
X15344173Y1924613D01*
X15344173Y1924613D02*
X15344173Y1696041D01*
X15344173Y1696041D02*
X15382268Y1619851D01*
X15382268Y1619851D02*
X15420363Y1581755D01*
X15420363Y1581755D02*
X15496554Y1543660D01*
X15496554Y1543660D02*
X15610840Y1543660D01*
X14658458Y2076994D02*
X14658458Y1429375D01*
X14658458Y1429375D02*
X14696553Y1353184D01*
X14696553Y1353184D02*
X14734649Y1315089D01*
X14734649Y1315089D02*
X14810839Y1276994D01*
X14810839Y1276994D02*
X14925125Y1276994D01*
X14925125Y1276994D02*
X15001315Y1315089D01*
X14658458Y1581755D02*
X14734649Y1543660D01*
X14734649Y1543660D02*
X14887030Y1543660D01*
X14887030Y1543660D02*
X14963220Y1581755D01*
X14963220Y1581755D02*
X15001315Y1619851D01*
X15001315Y1619851D02*
X15039411Y1696041D01*
X15039411Y1696041D02*
X15039411Y1924613D01*
X15039411Y1924613D02*
X15001315Y2000803D01*
X15001315Y2000803D02*
X14963220Y2038898D01*
X14963220Y2038898D02*
X14887030Y2076994D01*
X14887030Y2076994D02*
X14734649Y2076994D01*
X14734649Y2076994D02*
X14658458Y2038898D01*
X14163220Y1543660D02*
X14239410Y1581755D01*
X14239410Y1581755D02*
X14277505Y1619851D01*
X14277505Y1619851D02*
X14315601Y1696041D01*
X14315601Y1696041D02*
X14315601Y1924613D01*
X14315601Y1924613D02*
X14277505Y2000803D01*
X14277505Y2000803D02*
X14239410Y2038898D01*
X14239410Y2038898D02*
X14163220Y2076994D01*
X14163220Y2076994D02*
X14048934Y2076994D01*
X14048934Y2076994D02*
X13972743Y2038898D01*
X13972743Y2038898D02*
X13934648Y2000803D01*
X13934648Y2000803D02*
X13896553Y1924613D01*
X13896553Y1924613D02*
X13896553Y1696041D01*
X13896553Y1696041D02*
X13934648Y1619851D01*
X13934648Y1619851D02*
X13972743Y1581755D01*
X13972743Y1581755D02*
X14048934Y1543660D01*
X14048934Y1543660D02*
X14163220Y1543660D01*
X12677505Y1962708D02*
X12563219Y1924613D01*
X12563219Y1924613D02*
X12525124Y1886517D01*
X12525124Y1886517D02*
X12487028Y1810327D01*
X12487028Y1810327D02*
X12487028Y1696041D01*
X12487028Y1696041D02*
X12525124Y1619851D01*
X12525124Y1619851D02*
X12563219Y1581755D01*
X12563219Y1581755D02*
X12639409Y1543660D01*
X12639409Y1543660D02*
X12944171Y1543660D01*
X12944171Y1543660D02*
X12944171Y2343660D01*
X12944171Y2343660D02*
X12677505Y2343660D01*
X12677505Y2343660D02*
X12601314Y2305565D01*
X12601314Y2305565D02*
X12563219Y2267470D01*
X12563219Y2267470D02*
X12525124Y2191279D01*
X12525124Y2191279D02*
X12525124Y2115089D01*
X12525124Y2115089D02*
X12563219Y2038898D01*
X12563219Y2038898D02*
X12601314Y2000803D01*
X12601314Y2000803D02*
X12677505Y1962708D01*
X12677505Y1962708D02*
X12944171Y1962708D01*
X12029886Y1543660D02*
X12106076Y1581755D01*
X12106076Y1581755D02*
X12144171Y1619851D01*
X12144171Y1619851D02*
X12182267Y1696041D01*
X12182267Y1696041D02*
X12182267Y1924613D01*
X12182267Y1924613D02*
X12144171Y2000803D01*
X12144171Y2000803D02*
X12106076Y2038898D01*
X12106076Y2038898D02*
X12029886Y2076994D01*
X12029886Y2076994D02*
X11915600Y2076994D01*
X11915600Y2076994D02*
X11839409Y2038898D01*
X11839409Y2038898D02*
X11801314Y2000803D01*
X11801314Y2000803D02*
X11763219Y1924613D01*
X11763219Y1924613D02*
X11763219Y1696041D01*
X11763219Y1696041D02*
X11801314Y1619851D01*
X11801314Y1619851D02*
X11839409Y1581755D01*
X11839409Y1581755D02*
X11915600Y1543660D01*
X11915600Y1543660D02*
X12029886Y1543660D01*
X11077504Y1543660D02*
X11077504Y1962708D01*
X11077504Y1962708D02*
X11115599Y2038898D01*
X11115599Y2038898D02*
X11191790Y2076994D01*
X11191790Y2076994D02*
X11344171Y2076994D01*
X11344171Y2076994D02*
X11420361Y2038898D01*
X11077504Y1581755D02*
X11153695Y1543660D01*
X11153695Y1543660D02*
X11344171Y1543660D01*
X11344171Y1543660D02*
X11420361Y1581755D01*
X11420361Y1581755D02*
X11458457Y1657946D01*
X11458457Y1657946D02*
X11458457Y1734136D01*
X11458457Y1734136D02*
X11420361Y1810327D01*
X11420361Y1810327D02*
X11344171Y1848422D01*
X11344171Y1848422D02*
X11153695Y1848422D01*
X11153695Y1848422D02*
X11077504Y1886517D01*
X10696551Y1543660D02*
X10696551Y2076994D01*
X10696551Y1924613D02*
X10658456Y2000803D01*
X10658456Y2000803D02*
X10620361Y2038898D01*
X10620361Y2038898D02*
X10544170Y2076994D01*
X10544170Y2076994D02*
X10467980Y2076994D01*
X9858456Y1543660D02*
X9858456Y2343660D01*
X9858456Y1581755D02*
X9934647Y1543660D01*
X9934647Y1543660D02*
X10087028Y1543660D01*
X10087028Y1543660D02*
X10163218Y1581755D01*
X10163218Y1581755D02*
X10201313Y1619851D01*
X10201313Y1619851D02*
X10239409Y1696041D01*
X10239409Y1696041D02*
X10239409Y1924613D01*
X10239409Y1924613D02*
X10201313Y2000803D01*
X10201313Y2000803D02*
X10163218Y2038898D01*
X10163218Y2038898D02*
X10087028Y2076994D01*
X10087028Y2076994D02*
X9934647Y2076994D01*
X9934647Y2076994D02*
X9858456Y2038898D01*
X8410836Y1543660D02*
X8677503Y1924613D01*
X8867979Y1543660D02*
X8867979Y2343660D01*
X8867979Y2343660D02*
X8563217Y2343660D01*
X8563217Y2343660D02*
X8487027Y2305565D01*
X8487027Y2305565D02*
X8448932Y2267470D01*
X8448932Y2267470D02*
X8410836Y2191279D01*
X8410836Y2191279D02*
X8410836Y2076994D01*
X8410836Y2076994D02*
X8448932Y2000803D01*
X8448932Y2000803D02*
X8487027Y1962708D01*
X8487027Y1962708D02*
X8563217Y1924613D01*
X8563217Y1924613D02*
X8867979Y1924613D01*
X7648932Y1543660D02*
X8106075Y1543660D01*
X7877503Y1543660D02*
X7877503Y2343660D01*
X7877503Y2343660D02*
X7953694Y2229375D01*
X7953694Y2229375D02*
X8029884Y2153184D01*
X8029884Y2153184D02*
X8106075Y2115089D01*
X7306074Y1619851D02*
X7267979Y1581755D01*
X7267979Y1581755D02*
X7306074Y1543660D01*
X7306074Y1543660D02*
X7344170Y1581755D01*
X7344170Y1581755D02*
X7306074Y1619851D01*
X7306074Y1619851D02*
X7306074Y1543660D01*
X6772741Y2343660D02*
X6696551Y2343660D01*
X6696551Y2343660D02*
X6620360Y2305565D01*
X6620360Y2305565D02*
X6582265Y2267470D01*
X6582265Y2267470D02*
X6544170Y2191279D01*
X6544170Y2191279D02*
X6506075Y2038898D01*
X6506075Y2038898D02*
X6506075Y1848422D01*
X6506075Y1848422D02*
X6544170Y1696041D01*
X6544170Y1696041D02*
X6582265Y1619851D01*
X6582265Y1619851D02*
X6620360Y1581755D01*
X6620360Y1581755D02*
X6696551Y1543660D01*
X6696551Y1543660D02*
X6772741Y1543660D01*
X6772741Y1543660D02*
X6848932Y1581755D01*
X6848932Y1581755D02*
X6887027Y1619851D01*
X6887027Y1619851D02*
X6925122Y1696041D01*
X6925122Y1696041D02*
X6963218Y1848422D01*
X6963218Y1848422D02*
X6963218Y2038898D01*
X6963218Y2038898D02*
X6925122Y2191279D01*
X6925122Y2191279D02*
X6887027Y2267470D01*
X6887027Y2267470D02*
X6848932Y2305565D01*
X6848932Y2305565D02*
X6772741Y2343660D01*
X19648935Y979515D02*
X19610839Y1017610D01*
X19610839Y1017610D02*
X19534649Y1055705D01*
X19534649Y1055705D02*
X19344173Y1055705D01*
X19344173Y1055705D02*
X19267982Y1017610D01*
X19267982Y1017610D02*
X19229887Y979515D01*
X19229887Y979515D02*
X19191792Y903324D01*
X19191792Y903324D02*
X19191792Y827134D01*
X19191792Y827134D02*
X19229887Y712848D01*
X19229887Y712848D02*
X19687030Y255705D01*
X19687030Y255705D02*
X19191792Y255705D01*
X18696553Y1055705D02*
X18620363Y1055705D01*
X18620363Y1055705D02*
X18544172Y1017610D01*
X18544172Y1017610D02*
X18506077Y979515D01*
X18506077Y979515D02*
X18467982Y903324D01*
X18467982Y903324D02*
X18429887Y750943D01*
X18429887Y750943D02*
X18429887Y560467D01*
X18429887Y560467D02*
X18467982Y408086D01*
X18467982Y408086D02*
X18506077Y331896D01*
X18506077Y331896D02*
X18544172Y293800D01*
X18544172Y293800D02*
X18620363Y255705D01*
X18620363Y255705D02*
X18696553Y255705D01*
X18696553Y255705D02*
X18772744Y293800D01*
X18772744Y293800D02*
X18810839Y331896D01*
X18810839Y331896D02*
X18848934Y408086D01*
X18848934Y408086D02*
X18887030Y560467D01*
X18887030Y560467D02*
X18887030Y750943D01*
X18887030Y750943D02*
X18848934Y903324D01*
X18848934Y903324D02*
X18810839Y979515D01*
X18810839Y979515D02*
X18772744Y1017610D01*
X18772744Y1017610D02*
X18696553Y1055705D01*
X18125125Y979515D02*
X18087029Y1017610D01*
X18087029Y1017610D02*
X18010839Y1055705D01*
X18010839Y1055705D02*
X17820363Y1055705D01*
X17820363Y1055705D02*
X17744172Y1017610D01*
X17744172Y1017610D02*
X17706077Y979515D01*
X17706077Y979515D02*
X17667982Y903324D01*
X17667982Y903324D02*
X17667982Y827134D01*
X17667982Y827134D02*
X17706077Y712848D01*
X17706077Y712848D02*
X18163220Y255705D01*
X18163220Y255705D02*
X17667982Y255705D01*
X16982267Y1055705D02*
X17134648Y1055705D01*
X17134648Y1055705D02*
X17210839Y1017610D01*
X17210839Y1017610D02*
X17248934Y979515D01*
X17248934Y979515D02*
X17325124Y865229D01*
X17325124Y865229D02*
X17363220Y712848D01*
X17363220Y712848D02*
X17363220Y408086D01*
X17363220Y408086D02*
X17325124Y331896D01*
X17325124Y331896D02*
X17287029Y293800D01*
X17287029Y293800D02*
X17210839Y255705D01*
X17210839Y255705D02*
X17058458Y255705D01*
X17058458Y255705D02*
X16982267Y293800D01*
X16982267Y293800D02*
X16944172Y331896D01*
X16944172Y331896D02*
X16906077Y408086D01*
X16906077Y408086D02*
X16906077Y598562D01*
X16906077Y598562D02*
X16944172Y674753D01*
X16944172Y674753D02*
X16982267Y712848D01*
X16982267Y712848D02*
X17058458Y750943D01*
X17058458Y750943D02*
X17210839Y750943D01*
X17210839Y750943D02*
X17287029Y712848D01*
X17287029Y712848D02*
X17325124Y674753D01*
X17325124Y674753D02*
X17363220Y598562D01*
X16563219Y560467D02*
X15953696Y560467D01*
X15420362Y1055705D02*
X15344172Y1055705D01*
X15344172Y1055705D02*
X15267981Y1017610D01*
X15267981Y1017610D02*
X15229886Y979515D01*
X15229886Y979515D02*
X15191791Y903324D01*
X15191791Y903324D02*
X15153696Y750943D01*
X15153696Y750943D02*
X15153696Y560467D01*
X15153696Y560467D02*
X15191791Y408086D01*
X15191791Y408086D02*
X15229886Y331896D01*
X15229886Y331896D02*
X15267981Y293800D01*
X15267981Y293800D02*
X15344172Y255705D01*
X15344172Y255705D02*
X15420362Y255705D01*
X15420362Y255705D02*
X15496553Y293800D01*
X15496553Y293800D02*
X15534648Y331896D01*
X15534648Y331896D02*
X15572743Y408086D01*
X15572743Y408086D02*
X15610839Y560467D01*
X15610839Y560467D02*
X15610839Y750943D01*
X15610839Y750943D02*
X15572743Y903324D01*
X15572743Y903324D02*
X15534648Y979515D01*
X15534648Y979515D02*
X15496553Y1017610D01*
X15496553Y1017610D02*
X15420362Y1055705D01*
X14772743Y255705D02*
X14620362Y255705D01*
X14620362Y255705D02*
X14544172Y293800D01*
X14544172Y293800D02*
X14506076Y331896D01*
X14506076Y331896D02*
X14429886Y446181D01*
X14429886Y446181D02*
X14391791Y598562D01*
X14391791Y598562D02*
X14391791Y903324D01*
X14391791Y903324D02*
X14429886Y979515D01*
X14429886Y979515D02*
X14467981Y1017610D01*
X14467981Y1017610D02*
X14544172Y1055705D01*
X14544172Y1055705D02*
X14696553Y1055705D01*
X14696553Y1055705D02*
X14772743Y1017610D01*
X14772743Y1017610D02*
X14810838Y979515D01*
X14810838Y979515D02*
X14848934Y903324D01*
X14848934Y903324D02*
X14848934Y712848D01*
X14848934Y712848D02*
X14810838Y636658D01*
X14810838Y636658D02*
X14772743Y598562D01*
X14772743Y598562D02*
X14696553Y560467D01*
X14696553Y560467D02*
X14544172Y560467D01*
X14544172Y560467D02*
X14467981Y598562D01*
X14467981Y598562D02*
X14429886Y636658D01*
X14429886Y636658D02*
X14391791Y712848D01*
X14048933Y560467D02*
X13439410Y560467D01*
X13096553Y979515D02*
X13058457Y1017610D01*
X13058457Y1017610D02*
X12982267Y1055705D01*
X12982267Y1055705D02*
X12791791Y1055705D01*
X12791791Y1055705D02*
X12715600Y1017610D01*
X12715600Y1017610D02*
X12677505Y979515D01*
X12677505Y979515D02*
X12639410Y903324D01*
X12639410Y903324D02*
X12639410Y827134D01*
X12639410Y827134D02*
X12677505Y712848D01*
X12677505Y712848D02*
X13134648Y255705D01*
X13134648Y255705D02*
X12639410Y255705D01*
X11915600Y1055705D02*
X12296552Y1055705D01*
X12296552Y1055705D02*
X12334648Y674753D01*
X12334648Y674753D02*
X12296552Y712848D01*
X12296552Y712848D02*
X12220362Y750943D01*
X12220362Y750943D02*
X12029886Y750943D01*
X12029886Y750943D02*
X11953695Y712848D01*
X11953695Y712848D02*
X11915600Y674753D01*
X11915600Y674753D02*
X11877505Y598562D01*
X11877505Y598562D02*
X11877505Y408086D01*
X11877505Y408086D02*
X11915600Y331896D01*
X11915600Y331896D02*
X11953695Y293800D01*
X11953695Y293800D02*
X12029886Y255705D01*
X12029886Y255705D02*
X12220362Y255705D01*
X12220362Y255705D02*
X12296552Y293800D01*
X12296552Y293800D02*
X12334648Y331896D01*
X9509523Y8899610D02*
X9585713Y8937705D01*
X9585713Y8937705D02*
X9699999Y8937705D01*
X9699999Y8937705D02*
X9814285Y8899610D01*
X9814285Y8899610D02*
X9890475Y8823420D01*
X9890475Y8823420D02*
X9928570Y8747229D01*
X9928570Y8747229D02*
X9966666Y8594848D01*
X9966666Y8594848D02*
X9966666Y8480562D01*
X9966666Y8480562D02*
X9928570Y8328181D01*
X9928570Y8328181D02*
X9890475Y8251991D01*
X9890475Y8251991D02*
X9814285Y8175800D01*
X9814285Y8175800D02*
X9699999Y8137705D01*
X9699999Y8137705D02*
X9623808Y8137705D01*
X9623808Y8137705D02*
X9509523Y8175800D01*
X9509523Y8175800D02*
X9471427Y8213896D01*
X9471427Y8213896D02*
X9471427Y8480562D01*
X9471427Y8480562D02*
X9623808Y8480562D01*
X9128570Y8137705D02*
X9128570Y8937705D01*
X9128570Y8937705D02*
X8671427Y8137705D01*
X8671427Y8137705D02*
X8671427Y8937705D01*
X8290475Y8137705D02*
X8290475Y8937705D01*
X8290475Y8937705D02*
X8099999Y8937705D01*
X8099999Y8937705D02*
X7985713Y8899610D01*
X7985713Y8899610D02*
X7909523Y8823420D01*
X7909523Y8823420D02*
X7871428Y8747229D01*
X7871428Y8747229D02*
X7833332Y8594848D01*
X7833332Y8594848D02*
X7833332Y8480562D01*
X7833332Y8480562D02*
X7871428Y8328181D01*
X7871428Y8328181D02*
X7909523Y8251991D01*
X7909523Y8251991D02*
X7985713Y8175800D01*
X7985713Y8175800D02*
X8099999Y8137705D01*
X8099999Y8137705D02*
X8290475Y8137705D01*
X9966666Y5637705D02*
X9699999Y4837705D01*
X9699999Y4837705D02*
X9433333Y5637705D01*
X8709523Y4913896D02*
X8747619Y4875800D01*
X8747619Y4875800D02*
X8861904Y4837705D01*
X8861904Y4837705D02*
X8938095Y4837705D01*
X8938095Y4837705D02*
X9052381Y4875800D01*
X9052381Y4875800D02*
X9128571Y4951991D01*
X9128571Y4951991D02*
X9166666Y5028181D01*
X9166666Y5028181D02*
X9204762Y5180562D01*
X9204762Y5180562D02*
X9204762Y5294848D01*
X9204762Y5294848D02*
X9166666Y5447229D01*
X9166666Y5447229D02*
X9128571Y5523420D01*
X9128571Y5523420D02*
X9052381Y5599610D01*
X9052381Y5599610D02*
X8938095Y5637705D01*
X8938095Y5637705D02*
X8861904Y5637705D01*
X8861904Y5637705D02*
X8747619Y5599610D01*
X8747619Y5599610D02*
X8709523Y5561515D01*
X7909523Y4913896D02*
X7947619Y4875800D01*
X7947619Y4875800D02*
X8061904Y4837705D01*
X8061904Y4837705D02*
X8138095Y4837705D01*
X8138095Y4837705D02*
X8252381Y4875800D01*
X8252381Y4875800D02*
X8328571Y4951991D01*
X8328571Y4951991D02*
X8366666Y5028181D01*
X8366666Y5028181D02*
X8404762Y5180562D01*
X8404762Y5180562D02*
X8404762Y5294848D01*
X8404762Y5294848D02*
X8366666Y5447229D01*
X8366666Y5447229D02*
X8328571Y5523420D01*
X8328571Y5523420D02*
X8252381Y5599610D01*
X8252381Y5599610D02*
X8138095Y5637705D01*
X8138095Y5637705D02*
X8061904Y5637705D01*
X8061904Y5637705D02*
X7947619Y5599610D01*
X7947619Y5599610D02*
X7909523Y5561515D01*
M02*
