%TF.GenerationSoftware,KiCad,Pcbnew,10.0.6*%
%TF.CreationDate,2026-09-25T16:44:55-07:00*%
%TF.ProjectId,vive-pogo,76697665-2d70-46f6-976f-2e6b69636164,1.0*%
%TF.SameCoordinates,Original*%
%TF.FileFunction,Soldermask,Top*%
%TF.FilePolarity,Negative*%
%FSLAX46Y46*%
G04 Gerber Fmt 4.6, Leading zero omitted, Abs format (unit mm)*
G04 Created by KiCad (PCBNEW 10.0.6) date 2026-09-25 16:44:55*
%MOMM*%
%LPD*%
G01*
G04 APERTURE LIST*
G04 APERTURE END LIST*
G36*
X10309993Y1859586D02*
G01*
X10375689Y1815689D01*
X10419586Y1749993D01*
X10435000Y1672500D01*
X10435000Y1327500D01*
X10419586Y1250007D01*
X10375689Y1184311D01*
X10309993Y1140414D01*
X10232500Y1125000D01*
X9977500Y1125000D01*
X9900007Y1140414D01*
X9834311Y1184311D01*
X9790414Y1250007D01*
X9775000Y1327500D01*
X9775000Y1672500D01*
X9790414Y1749993D01*
X9834311Y1815689D01*
X9900007Y1859586D01*
X9977500Y1875000D01*
X10232500Y1875000D01*
X10309993Y1859586D01*
G37*
G36*
X11299993Y1859586D02*
G01*
X11365689Y1815689D01*
X11409586Y1749993D01*
X11425000Y1672500D01*
X11425000Y1327500D01*
X11409586Y1250007D01*
X11365689Y1184311D01*
X11299993Y1140414D01*
X11222500Y1125000D01*
X10967500Y1125000D01*
X10890007Y1140414D01*
X10824311Y1184311D01*
X10780414Y1250007D01*
X10765000Y1327500D01*
X10765000Y1672500D01*
X10780414Y1749993D01*
X10824311Y1815689D01*
X10890007Y1859586D01*
X10967500Y1875000D01*
X11222500Y1875000D01*
X11299993Y1859586D01*
G37*
G36*
X7522772Y4747305D02*
G01*
X7529761Y4745275D01*
X7536863Y4744629D01*
X7604083Y4723682D01*
X7673217Y4703597D01*
X7678428Y4700515D01*
X7681358Y4699602D01*
X7743839Y4661832D01*
X7808067Y4623847D01*
X7810197Y4621717D01*
X7810220Y4621703D01*
X7916702Y4515221D01*
X7916715Y4515199D01*
X7918847Y4513067D01*
X7956848Y4448810D01*
X7994601Y4386359D01*
X7995513Y4383432D01*
X7998597Y4378217D01*
X8018689Y4309059D01*
X8039628Y4241865D01*
X8040273Y4234767D01*
X8042305Y4227772D01*
X8050000Y4130000D01*
X8050000Y3030000D01*
X8042305Y2932228D01*
X8040272Y2925234D01*
X8039628Y2918137D01*
X8018695Y2850964D01*
X7998597Y2781783D01*
X7995512Y2776568D01*
X7994601Y2773642D01*
X7956876Y2711238D01*
X7918847Y2646933D01*
X7916714Y2644801D01*
X7916702Y2644780D01*
X7810220Y2538298D01*
X7810199Y2538286D01*
X7808067Y2536153D01*
X7743762Y2498124D01*
X7681358Y2460399D01*
X7678432Y2459488D01*
X7673217Y2456403D01*
X7604044Y2436307D01*
X7536864Y2415372D01*
X7529766Y2414728D01*
X7522772Y2412695D01*
X7425000Y2405000D01*
X7327228Y2412695D01*
X7320233Y2414727D01*
X7313136Y2415372D01*
X7245949Y2436309D01*
X7176783Y2456403D01*
X7171568Y2459487D01*
X7168641Y2460399D01*
X7106190Y2498152D01*
X7041933Y2536153D01*
X7039801Y2538285D01*
X7039779Y2538298D01*
X6933297Y2644780D01*
X6933283Y2644803D01*
X6931153Y2646933D01*
X6893168Y2711161D01*
X6855398Y2773642D01*
X6854485Y2776572D01*
X6851403Y2781783D01*
X6831320Y2850909D01*
X6810371Y2918136D01*
X6809725Y2925239D01*
X6807695Y2932228D01*
X6800000Y3030000D01*
X6800000Y4130000D01*
X6807695Y4227772D01*
X6809725Y4234762D01*
X6810371Y4241864D01*
X6831322Y4309099D01*
X6851403Y4378217D01*
X6854484Y4383428D01*
X6855398Y4386359D01*
X6893196Y4448886D01*
X6931153Y4513067D01*
X6933281Y4515196D01*
X6933297Y4515221D01*
X7039779Y4621703D01*
X7039804Y4621719D01*
X7041933Y4623847D01*
X7106114Y4661804D01*
X7168641Y4699602D01*
X7171572Y4700516D01*
X7176783Y4703597D01*
X7245893Y4723676D01*
X7313135Y4744629D01*
X7320238Y4745275D01*
X7327228Y4747305D01*
X7425000Y4755000D01*
X7522772Y4747305D01*
G37*
G36*
X9678701Y4749291D02*
G01*
X9703033Y4733033D01*
X9719291Y4708701D01*
X9725000Y4680000D01*
X9725000Y2480000D01*
X9719291Y2451299D01*
X9703033Y2426967D01*
X9678701Y2410709D01*
X9650000Y2405000D01*
X9250000Y2405000D01*
X9221299Y2410709D01*
X9196967Y2426967D01*
X9180709Y2451299D01*
X9175000Y2480000D01*
X9175000Y4680000D01*
X9180709Y4708701D01*
X9196967Y4733033D01*
X9221299Y4749291D01*
X9250000Y4755000D01*
X9650000Y4755000D01*
X9678701Y4749291D01*
G37*
G36*
X10328701Y4749291D02*
G01*
X10353033Y4733033D01*
X10369291Y4708701D01*
X10375000Y4680000D01*
X10375000Y2480000D01*
X10369291Y2451299D01*
X10353033Y2426967D01*
X10328701Y2410709D01*
X10300000Y2405000D01*
X9900000Y2405000D01*
X9871299Y2410709D01*
X9846967Y2426967D01*
X9830709Y2451299D01*
X9825000Y2480000D01*
X9825000Y4680000D01*
X9830709Y4708701D01*
X9846967Y4733033D01*
X9871299Y4749291D01*
X9900000Y4755000D01*
X10300000Y4755000D01*
X10328701Y4749291D01*
G37*
G36*
X10978701Y4749291D02*
G01*
X11003033Y4733033D01*
X11019291Y4708701D01*
X11025000Y4680000D01*
X11025000Y2480000D01*
X11019291Y2451299D01*
X11003033Y2426967D01*
X10978701Y2410709D01*
X10950000Y2405000D01*
X10550000Y2405000D01*
X10521299Y2410709D01*
X10496967Y2426967D01*
X10480709Y2451299D01*
X10475000Y2480000D01*
X10475000Y4680000D01*
X10480709Y4708701D01*
X10496967Y4733033D01*
X10521299Y4749291D01*
X10550000Y4755000D01*
X10950000Y4755000D01*
X10978701Y4749291D01*
G37*
G36*
X11628701Y4749291D02*
G01*
X11653033Y4733033D01*
X11669291Y4708701D01*
X11675000Y4680000D01*
X11675000Y2480000D01*
X11669291Y2451299D01*
X11653033Y2426967D01*
X11628701Y2410709D01*
X11600000Y2405000D01*
X11200000Y2405000D01*
X11171299Y2410709D01*
X11146967Y2426967D01*
X11130709Y2451299D01*
X11125000Y2480000D01*
X11125000Y4680000D01*
X11130709Y4708701D01*
X11146967Y4733033D01*
X11171299Y4749291D01*
X11200000Y4755000D01*
X11600000Y4755000D01*
X11628701Y4749291D01*
G37*
G36*
X12278701Y4749291D02*
G01*
X12303033Y4733033D01*
X12319291Y4708701D01*
X12325000Y4680000D01*
X12325000Y2480000D01*
X12319291Y2451299D01*
X12303033Y2426967D01*
X12278701Y2410709D01*
X12250000Y2405000D01*
X11850000Y2405000D01*
X11821299Y2410709D01*
X11796967Y2426967D01*
X11780709Y2451299D01*
X11775000Y2480000D01*
X11775000Y4680000D01*
X11780709Y4708701D01*
X11796967Y4733033D01*
X11821299Y4749291D01*
X11850000Y4755000D01*
X12250000Y4755000D01*
X12278701Y4749291D01*
G37*
G36*
X14172772Y4747305D02*
G01*
X14179761Y4745275D01*
X14186863Y4744629D01*
X14254083Y4723682D01*
X14323217Y4703597D01*
X14328428Y4700515D01*
X14331358Y4699602D01*
X14393839Y4661832D01*
X14458067Y4623847D01*
X14460197Y4621717D01*
X14460220Y4621703D01*
X14566702Y4515221D01*
X14566715Y4515199D01*
X14568847Y4513067D01*
X14606848Y4448810D01*
X14644601Y4386359D01*
X14645513Y4383432D01*
X14648597Y4378217D01*
X14668689Y4309059D01*
X14689628Y4241865D01*
X14690273Y4234767D01*
X14692305Y4227772D01*
X14700000Y4130000D01*
X14700000Y3030000D01*
X14692305Y2932228D01*
X14690272Y2925234D01*
X14689628Y2918137D01*
X14668695Y2850964D01*
X14648597Y2781783D01*
X14645512Y2776568D01*
X14644601Y2773642D01*
X14606876Y2711238D01*
X14568847Y2646933D01*
X14566714Y2644801D01*
X14566702Y2644780D01*
X14460220Y2538298D01*
X14460199Y2538286D01*
X14458067Y2536153D01*
X14393762Y2498124D01*
X14331358Y2460399D01*
X14328432Y2459488D01*
X14323217Y2456403D01*
X14254044Y2436307D01*
X14186864Y2415372D01*
X14179766Y2414728D01*
X14172772Y2412695D01*
X14075000Y2405000D01*
X13977228Y2412695D01*
X13970233Y2414727D01*
X13963136Y2415372D01*
X13895949Y2436309D01*
X13826783Y2456403D01*
X13821568Y2459487D01*
X13818641Y2460399D01*
X13756190Y2498152D01*
X13691933Y2536153D01*
X13689801Y2538285D01*
X13689779Y2538298D01*
X13583297Y2644780D01*
X13583283Y2644803D01*
X13581153Y2646933D01*
X13543168Y2711161D01*
X13505398Y2773642D01*
X13504485Y2776572D01*
X13501403Y2781783D01*
X13481320Y2850909D01*
X13460371Y2918136D01*
X13459725Y2925239D01*
X13457695Y2932228D01*
X13450000Y3030000D01*
X13450000Y4130000D01*
X13457695Y4227772D01*
X13459725Y4234762D01*
X13460371Y4241864D01*
X13481322Y4309099D01*
X13501403Y4378217D01*
X13504484Y4383428D01*
X13505398Y4386359D01*
X13543196Y4448886D01*
X13581153Y4513067D01*
X13583281Y4515196D01*
X13583297Y4515221D01*
X13689779Y4621703D01*
X13689804Y4621719D01*
X13691933Y4623847D01*
X13756114Y4661804D01*
X13818641Y4699602D01*
X13821572Y4700516D01*
X13826783Y4703597D01*
X13895893Y4723676D01*
X13963135Y4744629D01*
X13970238Y4745275D01*
X13977228Y4747305D01*
X14075000Y4755000D01*
X14172772Y4747305D01*
G37*
G36*
X2637334Y6913732D02*
G01*
X2647954Y6911235D01*
X2658502Y6910404D01*
X2756865Y6885619D01*
X2848405Y6864089D01*
X2856508Y6860512D01*
X2863013Y6858872D01*
X2960282Y6814690D01*
X3046760Y6776506D01*
X3051510Y6773253D01*
X3054773Y6771770D01*
X3151479Y6704772D01*
X3225645Y6653967D01*
X3227524Y6652088D01*
X3227896Y6651830D01*
X3376829Y6502897D01*
X3377086Y6502526D01*
X3378967Y6500645D01*
X3429798Y6426441D01*
X3496769Y6329774D01*
X3498250Y6326513D01*
X3501506Y6321760D01*
X3539708Y6235240D01*
X3583871Y6138014D01*
X3585509Y6131513D01*
X3589089Y6123405D01*
X3610629Y6031821D01*
X3635403Y5933503D01*
X3636232Y5922961D01*
X3638732Y5912334D01*
X3650000Y5750000D01*
X3638732Y5587666D01*
X3636232Y5577039D01*
X3635403Y5566498D01*
X3610632Y5468195D01*
X3589089Y5376595D01*
X3585508Y5368487D01*
X3583871Y5361987D01*
X3539724Y5264797D01*
X3501506Y5178240D01*
X3498249Y5173486D01*
X3496769Y5170227D01*
X3429859Y5073649D01*
X3378967Y4999355D01*
X3377083Y4997472D01*
X3376829Y4997104D01*
X3227896Y4848171D01*
X3227528Y4847917D01*
X3225645Y4846033D01*
X3151351Y4795141D01*
X3054773Y4728231D01*
X3051514Y4726751D01*
X3046760Y4723494D01*
X2960203Y4685276D01*
X2863013Y4641129D01*
X2856513Y4639492D01*
X2848405Y4635911D01*
X2756805Y4614368D01*
X2658502Y4589597D01*
X2647961Y4588768D01*
X2637334Y4586268D01*
X2475000Y4575000D01*
X1675000Y4575000D01*
X1512666Y4586268D01*
X1502039Y4588768D01*
X1491497Y4589597D01*
X1393179Y4614371D01*
X1301595Y4635911D01*
X1293487Y4639491D01*
X1286986Y4641129D01*
X1189760Y4685292D01*
X1103240Y4723494D01*
X1098487Y4726750D01*
X1095226Y4728231D01*
X998559Y4795202D01*
X924355Y4846033D01*
X922474Y4847914D01*
X922103Y4848171D01*
X773170Y4997104D01*
X772912Y4997476D01*
X771033Y4999355D01*
X720228Y5073521D01*
X653230Y5170227D01*
X651747Y5173490D01*
X648494Y5178240D01*
X610310Y5264718D01*
X566128Y5361987D01*
X564488Y5368492D01*
X560911Y5376595D01*
X539381Y5468135D01*
X514596Y5566498D01*
X513766Y5577045D01*
X511268Y5587666D01*
X500000Y5750000D01*
X511268Y5912334D01*
X513765Y5922955D01*
X514596Y5933503D01*
X539384Y6031881D01*
X560911Y6123405D01*
X564488Y6131507D01*
X566128Y6138014D01*
X610325Y6235319D01*
X648494Y6321760D01*
X651746Y6326509D01*
X653230Y6329774D01*
X720289Y6426569D01*
X771033Y6500645D01*
X772910Y6502523D01*
X773170Y6502897D01*
X922103Y6651830D01*
X922477Y6652090D01*
X924355Y6653967D01*
X998431Y6704711D01*
X1095226Y6771770D01*
X1098491Y6773254D01*
X1103240Y6776506D01*
X1189681Y6814675D01*
X1286986Y6858872D01*
X1293493Y6860512D01*
X1301595Y6864089D01*
X1393119Y6885616D01*
X1491497Y6910404D01*
X1502045Y6911235D01*
X1512666Y6913732D01*
X1675000Y6925000D01*
X2475000Y6925000D01*
X2637334Y6913732D01*
G37*
G36*
X19987334Y6913732D02*
G01*
X19997954Y6911235D01*
X20008502Y6910404D01*
X20106865Y6885619D01*
X20198405Y6864089D01*
X20206508Y6860512D01*
X20213013Y6858872D01*
X20310282Y6814690D01*
X20396760Y6776506D01*
X20401510Y6773253D01*
X20404773Y6771770D01*
X20501479Y6704772D01*
X20575645Y6653967D01*
X20577524Y6652088D01*
X20577896Y6651830D01*
X20726829Y6502897D01*
X20727086Y6502526D01*
X20728967Y6500645D01*
X20779798Y6426441D01*
X20846769Y6329774D01*
X20848250Y6326513D01*
X20851506Y6321760D01*
X20889708Y6235240D01*
X20933871Y6138014D01*
X20935509Y6131513D01*
X20939089Y6123405D01*
X20960629Y6031821D01*
X20985403Y5933503D01*
X20986232Y5922961D01*
X20988732Y5912334D01*
X21000000Y5750000D01*
X20988732Y5587666D01*
X20986232Y5577039D01*
X20985403Y5566498D01*
X20960632Y5468195D01*
X20939089Y5376595D01*
X20935508Y5368487D01*
X20933871Y5361987D01*
X20889724Y5264797D01*
X20851506Y5178240D01*
X20848249Y5173486D01*
X20846769Y5170227D01*
X20779859Y5073649D01*
X20728967Y4999355D01*
X20727083Y4997472D01*
X20726829Y4997104D01*
X20577896Y4848171D01*
X20577528Y4847917D01*
X20575645Y4846033D01*
X20501351Y4795141D01*
X20404773Y4728231D01*
X20401514Y4726751D01*
X20396760Y4723494D01*
X20310203Y4685276D01*
X20213013Y4641129D01*
X20206513Y4639492D01*
X20198405Y4635911D01*
X20106805Y4614368D01*
X20008502Y4589597D01*
X19997961Y4588768D01*
X19987334Y4586268D01*
X19825000Y4575000D01*
X19025000Y4575000D01*
X18862666Y4586268D01*
X18852039Y4588768D01*
X18841497Y4589597D01*
X18743179Y4614371D01*
X18651595Y4635911D01*
X18643487Y4639491D01*
X18636986Y4641129D01*
X18539760Y4685292D01*
X18453240Y4723494D01*
X18448487Y4726750D01*
X18445226Y4728231D01*
X18348559Y4795202D01*
X18274355Y4846033D01*
X18272474Y4847914D01*
X18272103Y4848171D01*
X18123170Y4997104D01*
X18122912Y4997476D01*
X18121033Y4999355D01*
X18070228Y5073521D01*
X18003230Y5170227D01*
X18001747Y5173490D01*
X17998494Y5178240D01*
X17960310Y5264718D01*
X17916128Y5361987D01*
X17914488Y5368492D01*
X17910911Y5376595D01*
X17889381Y5468135D01*
X17864596Y5566498D01*
X17863766Y5577045D01*
X17861268Y5587666D01*
X17850000Y5750000D01*
X17861268Y5912334D01*
X17863765Y5922955D01*
X17864596Y5933503D01*
X17889384Y6031881D01*
X17910911Y6123405D01*
X17914488Y6131507D01*
X17916128Y6138014D01*
X17960325Y6235319D01*
X17998494Y6321760D01*
X18001746Y6326509D01*
X18003230Y6329774D01*
X18070289Y6426569D01*
X18121033Y6500645D01*
X18122910Y6502523D01*
X18123170Y6502897D01*
X18272103Y6651830D01*
X18272477Y6652090D01*
X18274355Y6653967D01*
X18348431Y6704711D01*
X18445226Y6771770D01*
X18448491Y6773254D01*
X18453240Y6776506D01*
X18539681Y6814675D01*
X18636986Y6858872D01*
X18643493Y6860512D01*
X18651595Y6864089D01*
X18743119Y6885616D01*
X18841497Y6910404D01*
X18852045Y6911235D01*
X18862666Y6913732D01*
X19025000Y6925000D01*
X19825000Y6925000D01*
X19987334Y6913732D01*
G37*
G36*
X7522772Y7747305D02*
G01*
X7529761Y7745275D01*
X7536863Y7744629D01*
X7604083Y7723682D01*
X7673217Y7703597D01*
X7678428Y7700515D01*
X7681358Y7699602D01*
X7743839Y7661832D01*
X7808067Y7623847D01*
X7810197Y7621717D01*
X7810220Y7621703D01*
X7916702Y7515221D01*
X7916715Y7515199D01*
X7918847Y7513067D01*
X7956848Y7448810D01*
X7994601Y7386359D01*
X7995513Y7383432D01*
X7998597Y7378217D01*
X8018689Y7309059D01*
X8039628Y7241865D01*
X8040273Y7234767D01*
X8042305Y7227772D01*
X8050000Y7130000D01*
X8050000Y6330000D01*
X8042305Y6232228D01*
X8040272Y6225234D01*
X8039628Y6218137D01*
X8018695Y6150964D01*
X7998597Y6081783D01*
X7995512Y6076568D01*
X7994601Y6073642D01*
X7956876Y6011238D01*
X7918847Y5946933D01*
X7916714Y5944801D01*
X7916702Y5944780D01*
X7810220Y5838298D01*
X7810199Y5838286D01*
X7808067Y5836153D01*
X7743762Y5798124D01*
X7681358Y5760399D01*
X7678432Y5759488D01*
X7673217Y5756403D01*
X7604044Y5736307D01*
X7536864Y5715372D01*
X7529766Y5714728D01*
X7522772Y5712695D01*
X7425000Y5705000D01*
X7327228Y5712695D01*
X7320233Y5714727D01*
X7313136Y5715372D01*
X7245949Y5736309D01*
X7176783Y5756403D01*
X7171568Y5759487D01*
X7168641Y5760399D01*
X7106190Y5798152D01*
X7041933Y5836153D01*
X7039801Y5838285D01*
X7039779Y5838298D01*
X6933297Y5944780D01*
X6933283Y5944803D01*
X6931153Y5946933D01*
X6893168Y6011161D01*
X6855398Y6073642D01*
X6854485Y6076572D01*
X6851403Y6081783D01*
X6831320Y6150909D01*
X6810371Y6218136D01*
X6809725Y6225239D01*
X6807695Y6232228D01*
X6800000Y6330000D01*
X6800000Y7130000D01*
X6807695Y7227772D01*
X6809725Y7234762D01*
X6810371Y7241864D01*
X6831322Y7309099D01*
X6851403Y7378217D01*
X6854484Y7383428D01*
X6855398Y7386359D01*
X6893196Y7448886D01*
X6931153Y7513067D01*
X6933281Y7515196D01*
X6933297Y7515221D01*
X7039779Y7621703D01*
X7039804Y7621719D01*
X7041933Y7623847D01*
X7106114Y7661804D01*
X7168641Y7699602D01*
X7171572Y7700516D01*
X7176783Y7703597D01*
X7245893Y7723676D01*
X7313135Y7744629D01*
X7320238Y7745275D01*
X7327228Y7747305D01*
X7425000Y7755000D01*
X7522772Y7747305D01*
G37*
G36*
X14172772Y7747305D02*
G01*
X14179761Y7745275D01*
X14186863Y7744629D01*
X14254083Y7723682D01*
X14323217Y7703597D01*
X14328428Y7700515D01*
X14331358Y7699602D01*
X14393839Y7661832D01*
X14458067Y7623847D01*
X14460197Y7621717D01*
X14460220Y7621703D01*
X14566702Y7515221D01*
X14566715Y7515199D01*
X14568847Y7513067D01*
X14606848Y7448810D01*
X14644601Y7386359D01*
X14645513Y7383432D01*
X14648597Y7378217D01*
X14668689Y7309059D01*
X14689628Y7241865D01*
X14690273Y7234767D01*
X14692305Y7227772D01*
X14700000Y7130000D01*
X14700000Y6330000D01*
X14692305Y6232228D01*
X14690272Y6225234D01*
X14689628Y6218137D01*
X14668695Y6150964D01*
X14648597Y6081783D01*
X14645512Y6076568D01*
X14644601Y6073642D01*
X14606876Y6011238D01*
X14568847Y5946933D01*
X14566714Y5944801D01*
X14566702Y5944780D01*
X14460220Y5838298D01*
X14460199Y5838286D01*
X14458067Y5836153D01*
X14393762Y5798124D01*
X14331358Y5760399D01*
X14328432Y5759488D01*
X14323217Y5756403D01*
X14254044Y5736307D01*
X14186864Y5715372D01*
X14179766Y5714728D01*
X14172772Y5712695D01*
X14075000Y5705000D01*
X13977228Y5712695D01*
X13970233Y5714727D01*
X13963136Y5715372D01*
X13895949Y5736309D01*
X13826783Y5756403D01*
X13821568Y5759487D01*
X13818641Y5760399D01*
X13756190Y5798152D01*
X13691933Y5836153D01*
X13689801Y5838285D01*
X13689779Y5838298D01*
X13583297Y5944780D01*
X13583283Y5944803D01*
X13581153Y5946933D01*
X13543168Y6011161D01*
X13505398Y6073642D01*
X13504485Y6076572D01*
X13501403Y6081783D01*
X13481320Y6150909D01*
X13460371Y6218136D01*
X13459725Y6225239D01*
X13457695Y6232228D01*
X13450000Y6330000D01*
X13450000Y7130000D01*
X13457695Y7227772D01*
X13459725Y7234762D01*
X13460371Y7241864D01*
X13481322Y7309099D01*
X13501403Y7378217D01*
X13504484Y7383428D01*
X13505398Y7386359D01*
X13543196Y7448886D01*
X13581153Y7513067D01*
X13583281Y7515196D01*
X13583297Y7515221D01*
X13689779Y7621703D01*
X13689804Y7621719D01*
X13691933Y7623847D01*
X13756114Y7661804D01*
X13818641Y7699602D01*
X13821572Y7700516D01*
X13826783Y7703597D01*
X13895893Y7723676D01*
X13963135Y7744629D01*
X13970238Y7745275D01*
X13977228Y7747305D01*
X14075000Y7755000D01*
X14172772Y7747305D01*
G37*
M02*
